<svg width="200" height="200" viewBox="0 0 200 200" fill="none" xmlns="http://www.w3.org/2000/svg">
<path d="M35.4167 1.61203e-05H164.583C169.236 -0.00448106 173.843 0.932018 178.142 2.75592C182.441 4.57981 186.347 7.25531 189.636 10.6293C192.926 14.0032 195.535 18.0094 197.313 22.4186C199.091 26.8277 200.004 31.5533 200 36.3248V163.675C200.004 168.447 199.091 173.172 197.313 177.581C195.535 181.991 192.926 185.997 189.636 189.371C186.347 192.745 182.441 195.42 178.142 197.244C173.843 199.068 169.236 200.004 164.583 200H35.4167C30.7645 200.004 26.157 199.068 21.8581 197.244C17.5592 195.42 13.6532 192.745 10.3635 189.371C7.07392 185.997 4.46532 181.991 2.68702 177.581C0.908717 173.172 -0.00436903 168.447 1.57173e-05 163.675V36.3248C-0.00436903 31.5533 0.908717 26.8277 2.68702 22.4186C4.46532 18.0094 7.07392 14.0032 10.3635 10.6293C13.6532 7.25531 17.5592 4.57981 21.8581 2.75592C26.157 0.932018 30.7645 -0.00448106 35.4167 1.61203e-05Z" fill="#45B980"/>
<path d="M74.9503 84.218C73.6994 86.1461 72.4907 88.0824 71.3241 90.0215C70.0482 86.5092 68.9279 83.0502 67.9737 79.6757C71.3658 79.1897 74.9712 78.8061 78.7714 78.5408C77.481 80.3907 76.2058 82.2833 74.9503 84.218ZM168.738 91.0153C164.981 87.4083 159.609 84.1032 152.772 81.1915C139.199 75.4113 121.019 71.6664 101.58 70.6468C99.2362 70.5239 96.9476 70.4398 94.7342 70.3951C109.576 52.6804 123.909 43.2549 132.256 42.9378C134.024 42.8703 135.508 43.22 136.67 43.9755C140.577 46.5145 141.661 54.3896 139.57 65.0414C139.157 67.144 140.527 69.1833 142.63 69.5961C144.733 70.0074 146.771 68.6391 147.184 66.5362C150.779 48.2248 145.751 40.6225 140.899 37.4692C138.367 35.8234 135.359 35.0547 131.962 35.1837C119.122 35.6716 101.131 49.3626 84.7146 70.4693C78.2153 70.6936 71.9496 71.2546 66.0884 72.1299C65.4451 69.1427 64.948 66.2473 64.6112 63.4719C63.1389 51.3377 64.9446 42.7244 69.4411 40.4311C70.1635 40.0628 70.953 39.8507 71.8546 39.7832C75.8724 39.4808 81.5414 42.1807 87.8068 47.3841C89.4548 48.7529 91.9011 48.5266 93.2705 46.8779C94.6393 45.2295 94.4127 42.7834 92.7643 41.4146C84.7169 34.7313 77.4869 31.5783 71.274 32.0452C69.3529 32.1893 67.5503 32.6851 65.9159 33.5185C61.739 35.6485 58.8848 39.7273 57.4321 45.6415C56.188 50.7061 56.0116 57.0196 56.9081 64.4064C57.2625 67.3277 57.7808 70.3679 58.4489 73.4982C53.8663 74.464 49.6191 75.6407 45.8122 77.016C29.1567 83.0326 25.3115 90.9631 25.0187 96.5565C24.7388 101.9 27.4739 109.852 42.0922 117.39C43.9967 118.373 46.3367 117.624 47.3189 115.72C48.301 113.815 47.5532 111.475 45.6487 110.494C37.2395 106.157 32.5446 101.225 32.7678 96.9624C33.0823 90.9563 43.1493 84.5996 60.2973 81.0177C61.8857 86.7544 63.926 92.7126 66.3724 98.7541C60.2091 110.324 55.7121 121.726 53.3803 131.869C51.7137 139.116 51.2267 145.409 51.9325 150.571C52.7569 156.601 55.1686 160.954 59.1 163.509C61.1046 164.812 63.8062 165.831 67.355 165.831C72.5008 165.831 79.4266 163.688 88.5823 157.157C90.3267 155.913 90.7325 153.49 89.4881 151.746C88.2442 150.001 85.8211 149.596 84.0765 150.84C75.0514 157.277 67.2953 159.581 63.3288 157.003C59.0987 154.254 58.2066 145.508 60.9426 133.607C62.7569 125.716 65.9942 116.97 70.3844 107.955C71.3376 109.996 72.3324 112.038 73.3699 114.076C82.2059 131.433 93.0227 146.534 103.828 156.598C109.269 161.666 114.474 165.234 119.297 167.204C122.223 168.399 124.97 168.997 127.521 168.997C129.882 168.996 132.075 168.484 134.083 167.46C138.112 165.406 140.913 161.531 142.41 155.943C143.692 151.157 143.98 145.188 143.266 138.199C141.863 124.459 136.671 107.701 128.647 91.0125C127.719 89.0811 125.4 88.2689 123.469 89.1969C121.538 90.1255 120.725 92.4439 121.654 94.375C129.299 110.275 134.233 126.119 135.547 138.988C136.702 150.305 134.837 158.365 130.558 160.547C126.064 162.839 118.049 159.24 109.117 150.92C98.9589 141.459 88.7197 127.124 80.2848 110.555C78.3565 106.767 76.5801 102.972 74.9637 99.2042C76.9699 95.6171 79.1392 92.0179 81.4596 88.4417C83.8256 84.7954 86.2208 81.3591 88.6224 78.1357C89.2595 78.1269 89.8999 78.1204 90.5458 78.1184C93.8778 78.1078 97.4491 78.2006 101.174 78.3959C119.729 79.3692 136.973 82.8976 149.732 88.3307C160.953 93.1099 167.495 98.9737 167.232 104.016C167.007 108.298 161.805 112.724 152.959 116.158C150.961 116.934 149.97 119.182 150.746 121.179C151.342 122.716 152.809 123.656 154.364 123.656C154.831 123.656 155.306 123.571 155.767 123.392C171.139 117.424 174.7 109.782 174.981 104.422C175.226 99.7378 173.126 95.2273 168.738 91.0153Z" fill="white"/>
<path d="M91.9924 101.528C91.9924 106.214 95.788 110.013 100.47 110.013C105.152 110.013 108.948 106.214 108.948 101.528C108.948 96.8422 105.152 93.0433 100.47 93.0433C95.788 93.0433 91.9924 96.8422 91.9924 101.528Z" fill="white"/>
</svg>
