<svg width="65" height="65" viewBox="0 0 65 65" fill="none" xmlns="http://www.w3.org/2000/svg">
<g clip-path="url(#clip0_147707_292)">
<path d="M28.7342 36.2502L22.5342 39.8502L22.2342 46.3502L13.0342 50.2502L1.63416 51.2502L4.03416 10.2502L27.5342 0.450195L52.9342 23.7502L28.7342 36.2502Z" fill="url(#paint0_linear_147707_292)"/>
<path d="M43.6342 11.3501L63.7342 24.8501L56.9342 39.8501L45.7342 36.6501H35.9342L43.6342 11.3501Z" fill="url(#paint1_linear_147707_292)"/>
<path d="M32.8343 47.8502L15.9342 8.4502L27.5342 0.450195L63.6342 24.8502L32.8343 47.8502Z" fill="url(#paint2_linear_147707_292)"/>
<path d="M4.03418 10.2502L27.5342 0.450195L15.9342 8.4502L4.03418 10.2502Z" fill="url(#paint3_linear_147707_292)"/>
<path d="M4.03416 10.2502L27.5342 0.450195L15.9342 8.4502L0.134155 51.6502L4.03416 10.2502Z" fill="url(#paint4_linear_147707_292)"/>
<path d="M24.1342 21.6502L34.5342 55.2502L22.0342 64.4502L0.134155 51.6502L5.93416 35.4502L23.5342 17.4502L24.1342 21.6502Z" fill="#21D789"/>
<path d="M19.7342 47.9502L0.134155 51.6502L22.0342 64.4502L34.5342 55.2502L19.7342 47.9502Z" fill="url(#paint5_linear_147707_292)"/>
<path d="M19.7342 47.9502L0.134155 51.6502L5.93416 35.4502L23.5342 17.4502L19.7342 47.9502Z" fill="url(#paint6_linear_147707_292)"/>
<path d="M25.0342 46.4502L34.4342 55.2502L22.0342 64.4502L25.0342 46.4502Z" fill="url(#paint7_linear_147707_292)"/>
<path d="M64.1342 57.7502L44.6342 64.3502L18.6342 57.0502L23.5342 17.4502L47.7342 0.450195L50.1342 18.0502L43.5342 32.3502L56.1342 27.4502L58.7342 37.1502L64.1342 57.7502Z" fill="url(#paint8_linear_147707_292)"/>
<path d="M64.1342 57.7502L44.6342 64.3502L56.1342 27.4502L64.1342 57.7502Z" fill="url(#paint9_linear_147707_292)"/>
<path d="M47.734 0.450195L38.5341 20.8502L31.3341 36.7502L43.5341 32.3502L50.3341 17.9502L47.734 0.450195Z" fill="url(#paint10_linear_147707_292)"/>
<path d="M4.03418 10.2502L27.5342 0.450195L15.9342 8.4502L4.03418 10.2502Z" fill="url(#paint11_linear_147707_292)"/>
<path d="M64.1342 57.7501L44.6342 64.3501L18.6342 57.0501L34.3342 55.3501L64.1342 57.7501Z" fill="url(#paint12_linear_147707_292)"/>
<path d="M47.1342 56.3501L44.6342 64.3501L64.1342 57.7501L47.1342 56.3501Z" fill="url(#paint13_linear_147707_292)"/>
<path d="M52.1342 12.4502H12.1342V52.4502H52.1342V12.4502Z" fill="url(#paint14_linear_147707_292)"/>
<g opacity="0.3">
<path opacity="0.3" d="M52.1341 33.3834V17.1168L49.7341 15.5168L50.1341 18.0501L43.6008 32.3168L52.1341 28.9834V33.3834Z" fill="url(#paint15_linear_147707_292)"/>
<path opacity="0.3" d="M52.1342 52.4502V28.9835L43.6009 32.3169L50.1342 18.0502L49.3342 12.4502H30.6675L23.4675 17.5169L19.2009 52.4502H52.1342Z" fill="url(#paint16_linear_147707_292)"/>
<path opacity="0.3" d="M38.5342 20.8502L31.3342 36.7169L43.6008 32.3169L50.2675 17.9169L49.4675 12.4502H42.4008L38.5342 20.8502Z" fill="url(#paint17_linear_147707_292)"/>
<path opacity="0.3" d="M17.6009 12.4502H12.1342V29.1169L20.9342 20.0502L17.6009 12.4502Z" fill="url(#paint18_linear_147707_292)"/>
<path opacity="0.3" d="M12.1342 49.3834L19.7342 47.9168L23.4675 17.5168L12.1342 29.1168V49.3834Z" fill="url(#paint19_linear_147707_292)"/>
</g>
<path d="M32.1342 44.9001H17.1342V47.4001H32.1342V44.9001Z" fill="white"/>
<path d="M17.1342 17.3501H23.2342C26.8342 17.3501 28.9342 19.4501 28.9342 22.5501C28.9342 26.0501 26.2342 27.8501 22.8342 27.8501H20.4342V32.3501H17.1342V17.3501ZM23.0342 24.9501C24.6342 24.9501 25.6342 23.9501 25.6342 22.6501C25.6342 21.1501 24.6342 20.3501 22.9342 20.3501H20.4342V24.9501H23.0342Z" fill="white"/>
<path d="M30.8341 24.8503C30.8341 20.5503 34.0341 17.0503 38.6341 17.0503C41.4341 17.0503 43.1341 17.9503 44.5341 19.3503L42.434 21.7503C41.234 20.7503 40.1341 20.0503 38.6341 20.0503C36.1341 20.0503 34.3341 22.1503 34.3341 24.7503C34.3341 27.3503 36.1341 29.4503 38.6341 29.4503C40.3341 29.4503 41.4341 28.7503 42.5341 27.6503L44.6341 29.7503C43.1341 31.3503 41.334 32.4503 38.5341 32.4503C34.0341 32.5503 30.8341 29.1503 30.8341 24.8503Z" fill="white"/>
</g>
<defs>
<linearGradient id="paint0_linear_147707_292" x1="-20.9452" y1="53.4998" x2="56.3983" y2="-3.5949" gradientUnits="userSpaceOnUse">
<stop offset="0.0107527" stop-color="#FCF84A"/>
<stop offset="0.1116" stop-color="#A7EB62"/>
<stop offset="0.2056" stop-color="#5FE077"/>
<stop offset="0.2727" stop-color="#32DA84"/>
<stop offset="0.3065" stop-color="#21D789"/>
<stop offset="0.5768" stop-color="#21D789"/>
<stop offset="0.5968" stop-color="#21D789"/>
<stop offset="0.686" stop-color="#20D68C"/>
<stop offset="0.7627" stop-color="#1ED497"/>
<stop offset="0.8348" stop-color="#19D1A9"/>
<stop offset="0.904" stop-color="#13CCC2"/>
<stop offset="0.9707" stop-color="#0BC6E1"/>
<stop offset="1" stop-color="#07C3F2"/>
</linearGradient>
<linearGradient id="paint1_linear_147707_292" x1="45.3957" y1="16.7684" x2="54.7294" y2="46.2833" gradientUnits="userSpaceOnUse">
<stop stop-color="#009AE5"/>
<stop offset="1" stop-color="#07C3F2"/>
</linearGradient>
<linearGradient id="paint2_linear_147707_292" x1="8.20285" y1="14.1836" x2="56.9166" y2="36.2365" gradientUnits="userSpaceOnUse">
<stop offset="0.0344093" stop-color="#10E899"/>
<stop offset="0.1745" stop-color="#13E596"/>
<stop offset="0.2947" stop-color="#1EDA8C"/>
<stop offset="0.3185" stop-color="#21D789"/>
<stop offset="0.3975" stop-color="#20D68C"/>
<stop offset="0.4653" stop-color="#1ED497"/>
<stop offset="0.529" stop-color="#19D1A9"/>
<stop offset="0.5903" stop-color="#13CCC2"/>
<stop offset="0.6492" stop-color="#0BC6E1"/>
<stop offset="0.6752" stop-color="#07C3F2"/>
<stop offset="0.9215" stop-color="#07EBFF"/>
</linearGradient>
<linearGradient id="paint3_linear_147707_292" x1="18.5284" y1="9.4582" x2="14.2561" y2="3.0835" gradientUnits="userSpaceOnUse">
<stop stop-color="#07C3F2"/>
<stop offset="0.1949" stop-color="#0BC6E2"/>
<stop offset="0.5746" stop-color="#15CEB8"/>
<stop offset="0.9463" stop-color="#21D789"/>
</linearGradient>
<linearGradient id="paint4_linear_147707_292" x1="-6.91774" y1="15.6873" x2="17.9886" y2="28.1405" gradientUnits="userSpaceOnUse">
<stop offset="0.030218" stop-color="#C1EF5B"/>
<stop offset="0.2486" stop-color="#9DEA65"/>
<stop offset="0.7318" stop-color="#41DC80"/>
<stop offset="0.896" stop-color="#21D789"/>
</linearGradient>
<linearGradient id="paint5_linear_147707_292" x1="24.6899" y1="35.4634" x2="10.3609" y2="70.3639" gradientUnits="userSpaceOnUse">
<stop offset="0.1026" stop-color="#087CFA"/>
<stop offset="0.2273" stop-color="#0C89EA" stop-opacity="0.8064"/>
<stop offset="0.4716" stop-color="#15ABC0" stop-opacity="0.427"/>
<stop offset="0.7466" stop-color="#21D789" stop-opacity="0"/>
</linearGradient>
<linearGradient id="paint6_linear_147707_292" x1="11.3931" y1="15.8301" x2="12.2238" y2="51.662" gradientUnits="userSpaceOnUse">
<stop offset="0.0108126" stop-color="#FCF84A"/>
<stop offset="0.0924045" stop-color="#ECF64F"/>
<stop offset="0.2525" stop-color="#C1EF5B"/>
<stop offset="0.4754" stop-color="#7DE56F"/>
<stop offset="0.7466" stop-color="#21D789"/>
</linearGradient>
<linearGradient id="paint7_linear_147707_292" x1="22.0837" y1="55.4335" x2="34.39" y2="55.4335" gradientUnits="userSpaceOnUse">
<stop stop-color="#13A5C7"/>
<stop offset="1" stop-color="#21D789"/>
</linearGradient>
<linearGradient id="paint8_linear_147707_292" x1="77.2709" y1="60.3054" x2="11.6053" y2="13.2841" gradientUnits="userSpaceOnUse">
<stop offset="0.4732" stop-color="#FCF84A"/>
<stop offset="0.5319" stop-color="#ECF74C"/>
<stop offset="0.647" stop-color="#C1F451"/>
<stop offset="0.8056" stop-color="#7EEF5A"/>
<stop offset="0.9489" stop-color="#3BEA62"/>
</linearGradient>
<linearGradient id="paint9_linear_147707_292" x1="75.5119" y1="41.6456" x2="23.104" y2="50.5379" gradientUnits="userSpaceOnUse">
<stop offset="0.2756" stop-color="#FCF84A"/>
<stop offset="0.3649" stop-color="#ECF74C"/>
<stop offset="0.5402" stop-color="#C1F451"/>
<stop offset="0.7817" stop-color="#7EEF5A"/>
<stop offset="1" stop-color="#3BEA62"/>
</linearGradient>
<linearGradient id="paint10_linear_147707_292" x1="55.0571" y1="40.1455" x2="35.2543" y2="12.6487" gradientUnits="userSpaceOnUse">
<stop offset="0.1216" stop-color="#FCF84A"/>
<stop offset="0.2021" stop-color="#F3F74B"/>
<stop offset="0.3351" stop-color="#DAF350"/>
<stop offset="0.5044" stop-color="#B1ED56"/>
<stop offset="0.7031" stop-color="#78E55F"/>
<stop offset="0.9242" stop-color="#30DB6B"/>
<stop offset="1" stop-color="#16D76F"/>
</linearGradient>
<linearGradient id="paint11_linear_147707_292" x1="5.69458" y1="4.34939" x2="23.5301" y2="6.14349" gradientUnits="userSpaceOnUse">
<stop stop-color="#FCF84A"/>
<stop offset="0.1636" stop-color="#D8F957"/>
<stop offset="0.529" stop-color="#7BFC79"/>
<stop offset="0.9855" stop-color="#00FFA6"/>
</linearGradient>
<linearGradient id="paint12_linear_147707_292" x1="63.052" y1="55.3379" x2="13.5056" y2="63.7446" gradientUnits="userSpaceOnUse">
<stop offset="0.0899703" stop-color="#3BEA62"/>
<stop offset="0.1675" stop-color="#67ED5C"/>
<stop offset="0.25" stop-color="#8FF058"/>
<stop offset="0.3382" stop-color="#B1F353"/>
<stop offset="0.4319" stop-color="#CCF550"/>
<stop offset="0.5329" stop-color="#E1F64D"/>
<stop offset="0.6448" stop-color="#F0F74B"/>
<stop offset="0.776" stop-color="#F9F84A"/>
<stop offset="0.9744" stop-color="#FCF84A"/>
</linearGradient>
<linearGradient id="paint13_linear_147707_292" x1="49.3139" y1="54.137" x2="59.5509" y2="68.0677" gradientUnits="userSpaceOnUse">
<stop stop-color="#3BEA62"/>
<stop offset="0.0877078" stop-color="#67ED5C"/>
<stop offset="0.1809" stop-color="#8FF058"/>
<stop offset="0.2807" stop-color="#B1F353"/>
<stop offset="0.3866" stop-color="#CCF550"/>
<stop offset="0.5008" stop-color="#E1F64D"/>
<stop offset="0.6273" stop-color="#F0F74B"/>
<stop offset="0.7757" stop-color="#F9F84A"/>
<stop offset="1" stop-color="#FCF84A"/>
</linearGradient>
<linearGradient id="paint14_linear_147707_292" x1="11.517" y1="15.6418" x2="52.4639" y2="49.0242" gradientUnits="userSpaceOnUse">
<stop stop-color="#2C4915"/>
<stop offset="0.479167"/>
</linearGradient>
<linearGradient id="paint15_linear_147707_292" x1="45.2536" y1="23.294" x2="54.5269" y2="27.4919" gradientUnits="userSpaceOnUse">
<stop offset="0.3185" stop-color="#21D789" stop-opacity="0"/>
<stop offset="0.4209" stop-color="#20D68C" stop-opacity="0.2213"/>
<stop offset="0.509" stop-color="#1ED497" stop-opacity="0.4115"/>
<stop offset="0.5917" stop-color="#19D1A9" stop-opacity="0.5903"/>
<stop offset="0.6711" stop-color="#13CCC2" stop-opacity="0.762"/>
<stop offset="0.7476" stop-color="#0BC6E1" stop-opacity="0.9273"/>
<stop offset="0.7813" stop-color="#07C3F2"/>
</linearGradient>
<linearGradient id="paint16_linear_147707_292" x1="21.4057" y1="21.9659" x2="53.6301" y2="48.2373" gradientUnits="userSpaceOnUse">
<stop offset="0.0268021" stop-color="#FCF84A"/>
<stop offset="0.093679" stop-color="#E5E543"/>
<stop offset="0.3358" stop-color="#94A22C"/>
<stop offset="0.5509" stop-color="#556D19"/>
<stop offset="0.731" stop-color="#27470B"/>
<stop offset="0.8692" stop-color="#0B3003"/>
<stop offset="0.9489" stop-color="#002700"/>
</linearGradient>
<linearGradient id="paint17_linear_147707_292" x1="32.801" y1="3.98979" x2="43.5854" y2="33.1711" gradientUnits="userSpaceOnUse">
<stop offset="0.1216" stop-color="#21D789"/>
<stop offset="0.2439" stop-color="#1FCE80"/>
<stop offset="0.4459" stop-color="#18B667"/>
<stop offset="0.7026" stop-color="#0E8E3E"/>
<stop offset="1" stop-color="#005806"/>
</linearGradient>
<linearGradient id="paint18_linear_147707_292" x1="12.1342" y1="20.7734" x2="20.9309" y2="20.7734" gradientUnits="userSpaceOnUse">
<stop offset="0.0108126" stop-color="#FCF84A"/>
<stop offset="0.0924045" stop-color="#ECF64F"/>
<stop offset="0.2525" stop-color="#C1EF5B"/>
<stop offset="0.4754" stop-color="#7DE56F"/>
<stop offset="0.7466" stop-color="#21D789"/>
</linearGradient>
<linearGradient id="paint19_linear_147707_292" x1="12.6686" y1="29.2097" x2="25.5997" y2="39.7518" gradientUnits="userSpaceOnUse">
<stop offset="0.0108126" stop-color="#FCF84A"/>
<stop offset="0.0924045" stop-color="#ECF64F"/>
<stop offset="0.2525" stop-color="#C1EF5B"/>
<stop offset="0.4754" stop-color="#7DE56F"/>
<stop offset="0.7466" stop-color="#21D789"/>
</linearGradient>
<clipPath id="clip0_147707_292">
<rect width="64" height="64" fill="white" transform="translate(0.134155 0.450195)"/>
</clipPath>
</defs>
</svg>
