<svg width="176" height="164" viewBox="0 0 176 164" fill="none" xmlns="http://www.w3.org/2000/svg">
<mask id="mask0_201_468" style="mask-type:luminance" maskUnits="userSpaceOnUse" x="0" y="0" width="176" height="164">
<path d="M0.119629 0.0166016H175.111V163.908H0.119629V0.0166016Z" fill="white"/>
</mask>
<g mask="url(#mask0_201_468)">
<path d="M59.9599 66.0167C70.4411 47.8385 82.7855 32.4562 94.5095 22.2499C108.635 9.95462 122.076 5.1391 129.324 9.31916C136.877 13.6756 139.616 28.5778 135.575 48.2014C132.522 63.0366 125.223 80.6683 115.273 97.9254C105.072 115.618 93.3916 131.206 81.8265 141.316C67.1929 154.11 53.0451 158.741 45.6381 154.467C38.4489 150.323 35.7001 136.733 39.1485 118.567C42.0625 103.217 49.3751 84.3766 59.9555 66.0201L59.9599 66.0167Z" stroke="#00D8FF" stroke-width="7.47646"/>
<path d="M59.985 97.9705C49.4756 79.8127 42.3179 61.4314 39.3306 46.1744C35.7349 27.7927 38.2773 13.7386 45.5181 9.54498C53.0634 5.17594 67.339 10.2441 82.3166 23.546C93.6412 33.6032 105.269 48.7313 115.247 65.9705C125.477 83.6458 133.145 101.553 136.127 116.623C139.902 135.694 136.847 150.264 129.445 154.551C122.263 158.71 109.121 154.308 95.107 142.245C83.2669 132.054 70.5989 116.308 59.9841 97.9671L59.985 97.9705Z" stroke="#00D8FF" stroke-width="7.47646"/>
</g>
</svg>
