<svg width="200" height="200" viewBox="0 0 200 200" fill="none" xmlns="http://www.w3.org/2000/svg">
<path d="M35.4167 1.61203e-05H164.583C169.236 -0.00448106 173.843 0.932018 178.142 2.75592C182.441 4.57981 186.347 7.25531 189.636 10.6293C192.926 14.0032 195.535 18.0094 197.313 22.4186C199.091 26.8277 200.004 31.5533 200 36.3248V163.675C200.004 168.447 199.091 173.172 197.313 177.581C195.535 181.991 192.926 185.997 189.636 189.371C186.347 192.745 182.441 195.42 178.142 197.244C173.843 199.068 169.236 200.004 164.583 200H35.4167C30.7645 200.004 26.157 199.068 21.8581 197.244C17.5592 195.42 13.6532 192.745 10.3635 189.371C7.07392 185.997 4.46532 181.991 2.68702 177.581C0.908717 173.172 -0.00436903 168.447 1.57173e-05 163.675V36.3248C-0.00436903 31.5533 0.908717 26.8277 2.68702 22.4186C4.46532 18.0094 7.07392 14.0032 10.3635 10.6293C13.6532 7.25531 17.5592 4.57981 21.8581 2.75592C26.157 0.932018 30.7645 -0.00448106 35.4167 1.61203e-05Z" fill="#4D4D4E"/>
<path d="M147.206 134.938L55.3877 164.078C55.3877 164.078 48.8685 167.495 50.4394 161.172L50.2038 133.093C50.2038 133.093 49.0649 128.969 54.72 127.948L92.0284 116.284L147.206 134.938Z" fill="#F89820"/>
<path d="M147.206 134.939C147.206 134.939 150.819 134.075 149.759 127.909L149.955 100.851C149.955 100.851 150.269 97.4339 143.79 96.0594L52.7964 66.7625C52.7964 66.7625 49.7332 65.5451 50.0866 69.3152L50.0474 99.4761C50.0474 99.4761 49.1834 102.579 54.8386 104.621L92.0291 116.284L147.206 134.939Z" fill="#F89820"/>
<path d="M107.109 84.2776L145.831 72.4567C145.831 72.4567 150.505 72.2996 149.955 63.542C149.405 54.7843 149.994 37.1512 149.994 37.1512C149.994 37.1512 149.602 33.8916 145.125 35.7767L53.3067 65.0736C53.3067 65.0736 50.0471 65.8983 52.7961 66.8016C55.5452 67.6655 107.109 84.2776 107.109 84.2776Z" fill="url(#paint0_linear_301_22)"/>
<defs>
<linearGradient id="paint0_linear_301_22" x1="144.623" y1="53.1985" x2="51.7432" y2="85.334" gradientUnits="userSpaceOnUse">
<stop offset="0.233" stop-color="#F89822"/>
<stop offset="1" stop-color="#C27818"/>
</linearGradient>
</defs>
</svg>
